# xmcd
#
# Track frame offsets: 
#        150
#        14923
#        33315
#        48838
#        68310
#        86573
#        103935
#        118760
#        136460
#        149700
#        169258
#
# Disc length: 2605 seconds
#
# Revision: 1
# Processed by: cddbd v1.5.2PL0 Copyright (c) Steve Scherf et al.
# Submitted via: ExactAudioCopy v0.99pb5
#
DISCID=9e0a2b0b
DTITLE=Steve Azar - Waitin' On Joe
DYEAR=2002
DGENRE=Country
TTITLE0=I Don't Have To Be Me ('Til Monday)
TTITLE1=How Long Is This Time Gonna Be
TTITLE2=Damn The Money
TTITLE3=Waitin' On Joe
TTITLE4=My Heart Wants To Run
TTITLE5=The UnderDog
TTITLE6=One Good Reason Why
TTITLE7=Lay Your Heart Next To Mine
TTITLE8=Goin' To Beat The Devil (To See My Angel Tonight)
TTITLE9=You Don't Know How It Feels
TTITLE10=River's On The Rise
EXTD=Another scanner1 Rip And Submit
EXTT0=
EXTT1=
EXTT2=
EXTT3=
EXTT4=
EXTT5=
EXTT6=
EXTT7=
EXTT8=
EXTT9=
EXTT10=
PLAYORDER=
